<?xml version="1.0" standalone="no"?>
<!DOCTYPE svg PUBLIC "-//W3C//DTD SVG 20010904//EN"
 "http://www.w3.org/TR/2001/REC-SVG-20010904/DTD/svg10.dtd">
<svg version="1.0" xmlns="http://www.w3.org/2000/svg"
 width="500.000000pt" height="500.000000pt" viewBox="0 0 500.000000 500.000000"
 preserveAspectRatio="xMidYMid meet">

<g transform="translate(0.000000,500.000000) scale(0.100000,-0.100000)"
fill="#000000" stroke="none">
<path d="M3370 4530 c0 -5 5 -10 11 -10 5 0 7 5 4 10 -3 6 -8 10 -11 10 -2 0
-4 -4 -4 -10z"/>
<path d="M3795 4428 c8 -21 -5 -24 -24 -5 -11 10 -12 9 -6 -3 13 -24 38 -51
58 -61 17 -10 17 -8 2 28 -16 38 -43 75 -30 41z"/>
<path d="M3747 4323 c-14 -13 15 -33 40 -27 17 5 28 1 37 -11 8 -11 18 -15 25
-10 9 5 1 15 -23 31 -34 24 -66 30 -79 17z"/>
<path d="M3885 4310 c10 -11 20 -18 23 -15 7 6 -18 35 -31 35 -5 0 -2 -9 8
-20z"/>
<path d="M4050 4265 c-18 -22 0 -52 51 -87 29 -21 39 -24 39 -13 0 8 -6 15
-14 15 -8 0 -17 15 -20 34 -4 18 -15 41 -25 50 -16 15 -19 15 -31 1z"/>
<path d="M3972 4214 c10 -10 20 -15 24 -12 3 4 -5 12 -18 18 -22 12 -22 12 -6
-6z"/>
<path d="M2655 4156 c-20 -20 -23 -25 -9 -18 22 11 50 41 43 45 -2 1 -17 -11
-34 -27z"/>
<path d="M4025 4170 c10 -11 20 -20 23 -20 3 0 -3 9 -13 20 -10 11 -20 20 -23
20 -3 0 3 -9 13 -20z"/>
<path d="M2131 4164 c0 -11 3 -14 6 -6 3 7 2 16 -1 19 -3 4 -6 -2 -5 -13z"/>
<path d="M2820 4165 c-7 -9 -11 -17 -9 -20 3 -2 10 5 17 15 14 24 10 26 -8 5z"/>
<path d="M4083 4142 c-7 -5 8 -29 42 -67 44 -49 54 -56 55 -39 0 27 -81 116
-97 106z"/>
<path d="M2141 4114 c0 -11 3 -14 6 -6 3 7 2 16 -1 19 -3 4 -6 -2 -5 -13z"/>
<path d="M2801 4114 c0 -11 3 -14 6 -6 3 7 2 16 -1 19 -3 4 -6 -2 -5 -13z"/>
<path d="M2886 4093 c-6 -14 -5 -15 5 -6 7 7 10 15 7 18 -3 3 -9 -2 -12 -12z"/>
<path d="M2618 4093 c7 -3 16 -2 19 1 4 3 -2 6 -13 5 -11 0 -14 -3 -6 -6z"/>
<path d="M3090 4091 c0 -6 -15 -18 -32 -26 -18 -8 -26 -14 -17 -15 22 0 66 36
57 46 -5 4 -8 2 -8 -5z"/>
<path d="M1928 4063 c6 -2 18 -2 25 0 6 3 1 5 -13 5 -14 0 -19 -2 -12 -5z"/>
<path d="M3250 3994 c-17 -9 -20 -14 -9 -14 9 0 22 7 29 15 15 18 13 18 -20
-1z"/>
<path d="M1741 3975 c0 -5 6 -21 14 -35 8 -14 14 -20 14 -15 0 6 -6 21 -14 35
-8 14 -14 21 -14 15z"/>
<path d="M4092 3937 c-14 -17 11 -57 35 -57 9 0 24 -7 34 -16 16 -14 18 -14
24 5 4 13 -1 27 -14 40 -12 12 -21 26 -21 31 0 15 -46 12 -58 -3z"/>
<path d="M4317 3843 c-12 -11 -7 -67 8 -93 8 -14 15 -20 15 -15 1 6 5 30 10
55 6 32 5 47 -3 52 -15 10 -22 10 -30 1z"/>
<path d="M869 3703 c-124 -130 -181 -204 -217 -283 -41 -90 -105 -223 -110
-230 -2 -2 -7 2 -12 10 -17 27 -10 71 16 105 14 19 28 53 31 76 6 39 5 41 -16
34 -19 -6 -21 -4 -15 19 7 30 -6 34 -29 8 -17 -19 -21 -77 -14 -207 l4 -80
-41 48 c-23 26 -47 47 -53 47 -6 0 -10 -18 -9 -40 0 -28 5 -39 13 -36 7 3 12
-2 11 -12 -4 -50 3 -93 16 -98 18 -7 61 30 52 45 -15 24 14 18 32 -6 l20 -28
0 48 c0 29 8 59 20 79 11 18 26 52 33 76 8 29 25 53 51 73 21 17 41 40 44 52
3 12 26 37 52 56 26 19 62 53 79 77 34 45 134 244 122 244 -3 0 -40 -35 -80
-77z"/>
<path d="M4260 3732 c0 -5 5 -13 12 -20 9 -9 9 -12 -2 -12 -9 -1 0 -14 21 -33
28 -25 40 -47 55 -102 11 -42 20 -61 22 -48 7 50 -58 203 -93 217 -8 3 -15 2
-15 -2z"/>
<path d="M130 3596 c0 -5 35 -47 78 -93 128 -141 153 -177 146 -212 -4 -20 -2
-31 5 -31 6 0 11 7 11 15 0 8 5 24 12 35 25 40 -32 170 -74 170 -10 0 -18 7
-18 15 0 19 -88 85 -114 85 -12 0 -27 5 -34 12 -7 7 -12 8 -12 4z"/>
<path d="M4429 3574 c-7 -9 -15 -38 -17 -65 -3 -46 -2 -49 20 -48 60 2 77 30
56 97 -11 35 -37 43 -59 16z"/>
<path d="M4509 3413 c-1 -5 0 -17 1 -27 1 -15 -3 -18 -21 -13 -46 12 -85 -63
-40 -78 26 -8 68 4 75 21 10 26 24 14 35 -30 12 -50 31 -70 31 -34 0 14 13 35
30 50 23 20 30 35 30 62 0 49 -19 47 -53 -6 -10 -16 -21 -28 -25 -28 -5 0 -19
20 -31 45 -22 44 -30 53 -32 38z"/>
<path d="M4655 3248 c-11 -5 -27 -22 -34 -39 -11 -25 -10 -36 5 -80 13 -34 15
-52 8 -57 -6 -4 -13 -19 -16 -34 -5 -25 -3 -27 18 -24 16 3 21 0 18 -9 -8 -21
13 -27 30 -9 30 29 48 77 52 133 4 52 2 59 -28 92 -27 30 -37 35 -53 27z"/>
<path d="M4330 3212 c0 -10 8 -26 18 -35 20 -18 47 -23 37 -7 -10 15 6 12 26
-6 16 -14 17 -14 14 3 -2 10 -4 20 -5 23 -1 3 -2 8 -2 12 1 3 -5 9 -13 12 -8
3 -15 1 -15 -4 0 -6 -4 -10 -10 -10 -5 0 -9 6 -7 12 1 7 -8 14 -20 16 -17 3
-23 -2 -23 -16z"/>
<path d="M1511 3194 c-115 -31 -288 -147 -345 -231 -30 -44 -26 -58 6 -17 103
137 304 249 435 242 62 -3 80 -19 69 -61 -14 -58 -117 -147 -170 -147 -40 0
-97 -16 -121 -34 -18 -13 -18 -16 -5 -30 13 -13 24 -11 94 17 l79 31 19 -24
c10 -13 18 -33 16 -44 -3 -18 -12 -22 -78 -28 -41 -4 -110 -18 -152 -31 -77
-25 -77 -25 -66 -3 25 47 150 223 184 259 20 21 33 41 29 45 -11 12 -141 -157
-220 -286 -21 -34 -53 -72 -71 -83 -36 -22 -64 -55 -64 -76 0 -6 7 -19 15 -27
12 -12 13 -20 5 -35 -12 -24 -13 -31 -1 -31 5 0 11 8 13 18 4 15 19 20 66 25
117 12 267 90 319 166 23 33 34 40 61 41 20 0 31 4 27 10 -3 6 -17 10 -31 10
-21 0 -24 4 -19 20 7 22 -10 60 -33 74 -11 6 -3 18 37 53 152 133 98 230 -98
177z m-36 -244 c-7 -11 -77 -32 -83 -25 -6 6 57 34 76 35 7 0 11 -4 7 -10z
m95 -112 c0 -22 -89 -97 -152 -126 -68 -32 -160 -56 -195 -51 l-22 4 27 54
c23 46 35 58 77 77 101 46 265 72 265 42z m-362 -123 c-21 -44 -38 -51 -38
-15 0 14 42 58 57 60 2 0 -7 -20 -19 -45z"/>
<path d="M4550 3156 c0 -8 5 -18 10 -21 6 -3 10 1 10 9 0 8 -4 18 -10 21 -5 3
-10 -1 -10 -9z"/>
<path d="M792 3119 c-17 -21 -80 -96 -129 -152 -14 -16 -31 -43 -39 -60 -9
-19 -13 -23 -11 -10 3 14 -3 29 -18 43 l-23 21 -11 -33 c-12 -32 -13 -32 -27
-14 -12 17 -14 18 -14 3 0 -9 -4 -17 -10 -17 -5 0 -7 -7 -4 -15 4 -10 0 -15
-15 -15 -16 0 -21 -6 -21 -27 1 -35 24 -67 44 -60 8 3 16 22 18 43 2 31 8 39
31 47 16 5 31 6 35 3 5 -5 -9 -55 -35 -126 -3 -8 -5 -25 -4 -38 1 -12 -9 -36
-23 -53 l-26 -30 3 38 c2 34 0 38 -28 43 -58 12 -101 -26 -69 -61 9 -10 20
-50 25 -95 6 -42 15 -86 20 -96 16 -30 2 -34 -20 -7 -11 13 -20 21 -21 17 0
-11 -40 30 -40 41 0 5 -7 14 -14 21 -8 6 -20 28 -27 48 -16 50 -47 94 -118
168 -59 61 -149 114 -193 114 -19 0 -20 -4 -14 -49 9 -67 99 -287 127 -311 3
-3 19 -27 34 -55 61 -107 125 -179 221 -253 23 -17 47 -44 53 -60 6 -15 20
-33 31 -40 19 -11 20 -10 19 25 0 21 -4 56 -9 78 -9 38 -9 37 -4 -12 5 -54 -5
-73 -26 -48 -30 36 -20 149 11 129 5 -3 9 18 9 46 0 96 43 150 131 165 27 5
49 18 74 46 19 21 35 45 36 52 2 48 10 91 17 96 5 3 12 16 16 29 4 12 21 37
37 54 16 18 31 48 34 68 3 19 13 72 21 117 12 69 13 92 2 143 -13 65 -27 74
-56 39z m-292 -556 c-5 -20 -8 -39 -7 -42 1 -3 -2 -8 -8 -11 -14 -7 -18 45 -5
70 17 32 29 23 20 -17z"/>
<path d="M2548 3071 c-30 -38 -75 -78 -129 -114 -134 -89 -170 -87 -122 5 40
76 39 78 -9 26 -38 -41 -211 -199 -278 -253 l-24 -20 15 25 c66 105 129 221
129 234 0 45 -79 18 -177 -62 -97 -79 -209 -123 -228 -91 -14 21 5 59 28 59
23 0 67 33 67 49 0 18 -29 19 -57 1 -29 -17 -63 -73 -63 -102 0 -48 64 -49
148 -4 48 26 64 31 68 21 11 -29 36 -22 99 25 36 27 65 45 65 41 0 -5 -30 -57
-66 -117 -59 -98 -85 -128 -259 -299 -191 -187 -224 -230 -197 -257 37 -37
128 50 286 270 97 137 123 165 260 286 118 105 152 131 154 116 2 -10 10 -24
18 -31 18 -15 71 7 151 63 l54 38 -7 -35 c-3 -19 -2 -35 3 -35 5 0 31 23 58
51 59 61 122 109 143 109 11 0 13 -8 8 -35 -9 -49 0 -75 28 -75 26 0 128 59
168 97 42 40 25 40 -24 0 -51 -41 -116 -77 -140 -77 -15 0 -18 9 -18 50 0 35
-4 52 -15 56 -17 7 -70 -24 -105 -61 -14 -15 -38 -37 -55 -48 l-29 -22 23 40
c13 22 36 56 51 75 36 48 43 60 32 60 -5 0 -29 -26 -54 -59z m-459 -117 c-42
-45 -143 -117 -147 -104 -6 16 64 87 108 110 51 28 68 25 39 -6z m-299 -39
c-7 -8 -20 -15 -28 -15 -13 0 -12 3 4 15 25 19 40 19 24 0z m63 -362 c-88
-139 -233 -303 -267 -303 -28 0 -26 18 9 62 28 38 263 268 272 268 2 0 -4 -12
-14 -27z"/>
<path d="M4550 3079 c0 -16 4 -28 9 -25 5 3 9 17 9 31 0 14 -4 25 -9 25 -5 0
-9 -14 -9 -31z"/>
<path d="M2357 3094 c-4 -4 -7 -14 -7 -23 0 -11 3 -12 11 -4 6 6 10 16 7 23
-2 6 -7 8 -11 4z"/>
<path d="M4245 3066 c-37 -27 20 -83 72 -72 24 6 29 12 28 38 0 26 -5 34 -25
39 -39 11 -55 10 -75 -5z"/>
<path d="M4427 3047 c-6 -15 13 -43 28 -42 6 0 20 7 32 15 20 13 20 15 5 27
-22 16 -59 16 -65 0z"/>
<path d="M4394 3037 c3 -10 6 -23 6 -28 0 -5 5 -9 10 -9 14 0 12 13 -6 36 -14
17 -15 17 -10 1z"/>
<path d="M491 3010 c-7 -4 -11 -18 -9 -31 5 -35 42 -33 46 2 3 28 -16 43 -37
29z"/>
<path d="M4412 2949 c-45 -13 -52 -37 -20 -64 37 -32 95 -41 119 -19 25 23 24
30 -10 65 -32 31 -38 32 -89 18z"/>
<path d="M4540 2881 c0 -5 5 -13 10 -16 6 -3 10 -2 10 4 0 5 -4 13 -10 16 -5
3 -10 2 -10 -4z"/>
<path d="M2631 2770 c-58 -28 -252 -153 -356 -230 -33 -24 -56 -31 -130 -40
-49 -6 -94 -15 -99 -21 -12 -11 0 -11 84 1 35 5 65 8 67 6 1 -1 -29 -28 -67
-60 -39 -31 -70 -62 -70 -67 0 -5 39 22 87 61 l87 70 123 0 c134 0 130 2 88
-55 -22 -30 -65 -109 -65 -120 0 -17 17 1 32 33 10 20 35 60 56 87 36 48 40
50 92 53 30 1 72 -1 94 -5 l39 -8 -41 -29 c-41 -28 -59 -57 -47 -76 11 -17 36
-11 102 25 34 20 63 34 63 31 0 -7 -89 -117 -145 -177 -29 -32 -118 -101 -215
-167 -200 -135 -272 -196 -268 -226 2 -15 11 -22 31 -24 45 -5 127 56 282 213
114 115 164 157 270 227 165 108 174 113 188 99 20 -20 43 -12 127 44 52 35
80 49 75 38 -41 -97 21 -119 157 -56 l63 30 0 -36 c0 -35 1 -36 37 -35 20 1
71 17 112 37 l76 36 -15 -29 c-8 -16 -15 -31 -15 -35 0 -13 25 -3 59 24 47 37
130 87 159 96 23 7 24 6 17 -49 -6 -48 -5 -57 10 -62 23 -9 107 19 173 57 81
46 54 46 -38 0 -45 -23 -94 -41 -107 -41 -25 0 -25 1 -19 54 6 42 4 55 -7 59
-18 7 -101 -31 -162 -73 -25 -17 -45 -28 -45 -25 0 4 30 38 67 76 36 38 64 71
61 74 -3 3 -30 -17 -61 -45 -75 -68 -244 -151 -281 -137 -24 9 -20 20 24 76
22 28 38 51 35 51 -3 0 -26 -15 -52 -34 -75 -53 -177 -92 -230 -87 -20 2 -15
39 9 82 25 44 20 58 -13 35 -17 -12 -26 -13 -36 -4 -19 16 -82 -5 -135 -45
-47 -35 -249 -167 -286 -186 -13 -7 12 29 59 85 94 113 110 141 88 155 -8 5
-27 6 -44 2 -33 -7 -41 -7 -162 2 -46 4 -83 9 -83 12 0 2 44 61 98 129 53 68
97 130 97 136 0 23 -29 19 -94 -12z m66 -4 c-3 -8 -49 -69 -102 -135 l-96
-121 -117 0 -117 0 25 20 c61 49 300 205 345 226 58 28 69 29 62 10z m90 -300
c-42 -34 -155 -92 -163 -83 -22 22 113 104 176 106 9 0 4 -9 -13 -23z m274
-16 c-45 -38 -118 -76 -128 -66 -9 8 59 71 92 86 11 5 31 9 45 9 25 0 24 0 -9
-29z m-641 -416 c-111 -113 -203 -184 -236 -184 -62 0 -10 52 195 194 69 47
127 86 130 86 3 0 -37 -43 -89 -96z"/>
<path d="M985 2671 c-38 -20 -141 -97 -150 -111 -9 -14 8 -13 23 2 19 19 14 1
-10 -37 -13 -19 -30 -35 -38 -35 -9 0 -21 -5 -27 -11 -19 -19 -57 -6 -63 21
-6 24 -6 24 -18 -9 -16 -45 -15 -54 4 -47 10 4 14 2 11 -6 -2 -7 -10 -12 -16
-11 -6 2 -11 -4 -11 -12 0 -8 6 -15 14 -15 13 0 14 -23 1 -112 -3 -22 -1 -38
4 -38 6 0 13 17 16 38 4 20 15 48 24 62 10 14 26 40 36 59 10 19 69 86 131
147 128 127 146 157 69 115z"/>
<path d="M4220 2658 c0 -18 183 -194 188 -180 11 35 -105 179 -135 168 -8 -3
-16 1 -19 9 -7 18 -34 20 -34 3z"/>
<path d="M4898 2653 c6 -2 18 -2 25 0 6 3 1 5 -13 5 -14 0 -19 -2 -12 -5z"/>
<path d="M4895 2630 c-3 -5 -15 -10 -26 -10 -10 0 -19 -7 -19 -14 0 -25 -45
-67 -57 -55 -8 8 -11 7 -10 -2 1 -40 -3 -53 -15 -41 -19 19 -28 14 -28 -13 0
-15 -6 -25 -14 -25 -10 0 -14 -10 -11 -34 3 -36 -9 -42 -39 -17 -14 12 -16 11
-16 -7 0 -12 -4 -23 -9 -26 -10 -6 -3 -46 8 -46 8 1 81 68 81 75 0 3 19 24 43
48 23 23 51 53 62 67 11 14 32 40 48 58 15 19 27 38 27 43 0 12 -17 12 -25 -1z
m-220 -250 c3 -5 1 -10 -4 -10 -6 0 -11 5 -11 10 0 6 2 10 4 10 3 0 8 -4 11
-10z"/>
<path d="M3445 2549 c-11 -17 1 -21 15 -4 8 9 8 15 2 15 -6 0 -14 -5 -17 -11z"/>
<path d="M4590 2340 c0 -5 7 -10 16 -10 8 0 12 5 9 10 -3 6 -10 10 -16 10 -5
0 -9 -4 -9 -10z"/>
<path d="M4553 2316 c9 -7 17 -18 17 -25 0 -6 5 -11 10 -11 14 0 13 23 -2 38
-7 7 -19 12 -27 12 -14 -1 -13 -3 2 -14z"/>
<path d="M4475 2271 c-3 -5 -1 -12 5 -16 12 -8 54 4 45 13 -10 10 -44 12 -50
3z"/>
<path d="M553 2128 c-6 -7 -14 -23 -17 -35 -4 -13 -12 -23 -17 -23 -14 0 -11
-36 5 -49 11 -9 12 -6 9 13 -3 15 4 39 17 61 22 35 23 59 3 33z"/>
<path d="M4210 2011 c0 -5 6 -12 13 -14 10 -4 10 -6 0 -6 -7 -1 -13 -6 -13
-12 0 -6 6 -9 14 -6 8 3 17 1 19 -6 3 -9 8 -8 20 2 21 17 22 35 2 27 -9 -3
-18 1 -21 9 -7 16 -34 21 -34 6z"/>
<path d="M540 1962 c0 -12 31 -115 38 -127 4 -5 7 -24 9 -41 l2 -32 -92 -4
c-74 -3 -102 -9 -143 -30 -27 -15 -56 -34 -63 -42 -12 -14 -10 -16 15 -16 16
1 43 7 59 14 20 8 42 10 65 5 61 -14 80 -11 90 16 8 21 16 25 49 25 35 0 44
-5 67 -37 15 -21 41 -51 58 -68 17 -16 41 -43 54 -60 16 -20 20 -23 12 -7 -6
12 -14 57 -17 100 -2 42 -7 79 -9 81 -2 3 -16 -6 -30 -20 l-26 -24 -24 30
c-13 17 -24 39 -24 49 0 11 -8 28 -17 38 -9 10 -17 34 -17 53 -1 19 -3 35 -6
35 -4 0 -12 16 -19 35 -11 31 -31 48 -31 27z"/>
<path d="M4187 1894 c2 -6 25 -17 51 -24 26 -6 59 -18 74 -26 33 -18 44 -4 16
21 -19 15 -20 19 -6 29 11 8 -3 11 -63 12 -57 0 -76 -2 -72 -12z"/>
<path d="M4390 1850 c0 -5 6 -10 14 -10 8 0 18 5 21 10 3 6 -3 10 -14 10 -12
0 -21 -4 -21 -10z"/>
<path d="M4014 1665 c-4 -8 -11 -12 -17 -8 -6 4 -8 -4 -3 -22 6 -22 4 -26 -8
-22 -9 4 -18 1 -22 -5 -5 -7 -2 -8 6 -3 10 6 12 3 8 -13 -4 -12 -2 -25 4 -28
5 -3 2 -14 -8 -25 -12 -13 -20 -16 -24 -8 -4 6 -10 -4 -14 -21 -3 -18 -4 -36
-1 -40 3 -4 -3 -11 -12 -14 -13 -5 -10 -10 17 -25 40 -21 80 -16 80 10 0 21
-16 26 -23 7 -4 -10 -6 -10 -6 0 -1 7 5 15 13 18 10 4 13 15 9 40 -6 34 1 41
26 25 8 -5 10 -14 6 -21 -5 -9 -4 -11 3 -6 7 4 12 2 12 -3 0 -6 3 -11 8 -11 4
0 5 23 4 50 -2 28 1 64 7 82 8 23 8 35 0 44 -15 19 -58 18 -65 -1z"/>
<path d="M1632 1506 c18 -36 33 -64 35 -62 6 6 -45 120 -56 124 -5 2 4 -26 21
-62z"/>
<path d="M1708 1505 c-2 -39 1 -65 7 -65 6 0 10 28 10 65 0 84 -12 84 -17 0z"/>
<path d="M1855 1505 c0 -36 3 -65 8 -65 4 0 7 29 7 65 0 36 -3 65 -7 65 -5 0
-8 -29 -8 -65z"/>
<path d="M2002 1563 c10 -23 82 -123 85 -119 5 5 -75 126 -83 126 -3 0 -4 -3
-2 -7z"/>
<path d="M2220 1505 c0 -36 3 -65 8 -65 4 0 7 29 7 65 0 36 -3 65 -7 65 -5 0
-8 -29 -8 -65z"/>
<path d="M2370 1550 c-11 -20 -10 -21 40 -59 21 -16 23 -21 11 -35 -12 -14
-12 -16 3 -10 26 10 19 42 -13 59 -39 20 -44 30 -25 49 8 9 11 16 5 16 -6 0
-15 -9 -21 -20z"/>
<path d="M2600 1505 c0 -36 3 -65 8 -65 4 0 7 29 7 65 0 36 -3 65 -7 65 -5 0
-8 -29 -8 -65z"/>
<path d="M2780 1505 c0 -37 4 -65 10 -65 6 0 10 28 10 65 0 37 -4 65 -10 65
-6 0 -10 -28 -10 -65z"/>
<path d="M2833 1556 c21 -21 21 -30 3 -45 -12 -10 -12 -16 1 -41 8 -17 20 -30
26 -30 8 0 8 3 2 8 -5 4 -15 17 -22 28 -9 17 -8 24 5 38 18 18 9 45 -19 55 -9
3 -8 -1 4 -13z"/>
<path d="M2990 1505 c0 -36 3 -65 8 -65 4 0 7 29 7 65 0 36 -3 65 -7 65 -5 0
-8 -29 -8 -65z"/>
<path d="M3135 1505 c0 -36 3 -65 8 -65 4 0 7 29 7 65 0 36 -3 65 -7 65 -5 0
-8 -29 -8 -65z"/>
<path d="M3343 1563 c-24 -9 -14 -44 17 -61 23 -13 30 -23 27 -39 -2 -12 0
-20 4 -17 19 12 8 44 -21 59 -32 16 -38 33 -18 53 13 13 11 14 -9 5z"/>
<path d="M3385 1550 c3 -5 8 -10 11 -10 2 0 4 5 4 10 0 6 -5 10 -11 10 -5 0
-7 -4 -4 -10z"/>
<path d="M660 1502 c-12 -13 -19 -30 -17 -37 7 -15 129 -85 151 -85 17 0 56
34 56 49 0 5 -6 12 -12 14 -10 4 -9 8 2 16 13 9 13 11 -2 11 -10 0 -18 4 -18
10 0 5 -7 6 -17 3 -11 -4 -14 -3 -9 5 4 7 3 12 -3 12 -6 0 -8 8 -4 18 6 15 4
14 -16 -3 -20 -17 -24 -18 -34 -5 -18 23 -54 19 -77 -8z"/>
<path d="M3320 1461 c0 -5 7 -12 16 -15 14 -5 15 -4 4 9 -14 17 -20 19 -20 6z"/>
<path d="M2367 1449 c7 -7 15 -10 18 -7 3 3 -2 9 -12 12 -14 6 -15 5 -6 -5z"/>
<path d="M1365 1374 c-27 -42 -15 -104 45 -236 56 -124 90 -164 206 -240 46
-31 56 -48 26 -48 -22 0 -93 38 -107 57 -7 9 -22 13 -36 11 -20 -3 -13 -9 44
-38 37 -19 67 -38 67 -42 0 -5 -21 -6 -47 -4 -129 14 -163 16 -163 9 0 -11 63
-63 76 -63 7 0 11 8 10 18 -1 14 6 16 44 13 25 -2 53 -8 64 -13 12 -7 21 -7
25 0 3 6 23 10 43 9 49 -1 56 7 34 44 -10 17 -20 47 -21 67 -9 99 -18 142 -31
142 -7 0 -17 -7 -22 -16 -5 -9 -15 -14 -23 -12 -9 3 0 13 24 28 32 19 36 25
23 32 -9 5 -24 7 -34 4 -22 -7 -44 25 -31 45 15 24 10 31 -16 25 -14 -4 -25
-2 -25 4 0 5 3 9 8 9 18 -3 26 2 14 10 -8 5 -14 24 -14 44 0 27 -5 37 -25 46
-17 8 -23 18 -21 34 2 17 -8 29 -47 55 -60 39 -68 39 -90 6z m152 -220 c9 -8
22 -13 29 -10 17 6 28 -10 14 -19 -6 -4 -22 0 -35 9 -13 9 -32 16 -42 16 -15
0 -16 2 -3 10 19 13 19 13 37 -6z m129 -139 c-3 -9 -11 -13 -16 -10 -8 5 -7
11 1 21 14 18 24 11 15 -11z m4 -39 c0 -2 -7 -7 -16 -10 -8 -3 -12 -2 -9 4 6
10 25 14 25 6z m10 -59 c0 -4 -10 -3 -21 4 -17 9 -19 13 -8 20 13 8 28 -5 29
-24z"/>
<path d="M686 1331 c-17 -7 -25 -15 -18 -18 18 -7 15 -30 -5 -42 -10 -5 -15
-13 -11 -17 4 -3 3 -15 -3 -26 -10 -19 -8 -19 28 -14 21 3 41 5 46 6 4 0 7 6
7 13 0 7 11 13 26 12 22 0 27 5 30 27 1 15 -2 30 -7 33 -5 4 -9 11 -9 16 0 6
4 8 9 5 5 -3 11 0 14 8 7 18 -62 17 -107 -3z"/>
<path d="M3584 1338 c-4 -7 -2 -14 4 -16 7 -2 9 -9 5 -15 -4 -7 -7 -21 -8 -31
0 -17 -8 -20 -62 -22 -35 -2 -65 2 -68 7 -4 5 -1 9 4 9 6 0 11 9 11 20 0 13
-7 20 -20 20 -11 0 -20 -4 -20 -10 0 -5 -6 -7 -13 -4 -17 6 -86 -76 -102 -122
-11 -34 -1 -111 18 -130 11 -11 8 -53 -4 -77 -12 -22 -11 -22 9 -4 13 12 22
15 27 8 8 -13 38 -9 59 8 13 11 16 11 16 -2 0 -8 6 -17 13 -20 9 -3 9 -7 -1
-19 -10 -13 -10 -17 2 -21 8 -3 17 1 20 9 7 19 33 18 44 -3 8 -14 14 -15 40
-4 17 7 38 21 48 32 27 30 32 23 22 -28 -6 -28 -19 -55 -31 -65 -14 -11 -17
-18 -9 -18 14 0 12 -53 -3 -92 -8 -21 18 -71 47 -90 13 -8 47 -21 75 -28 47
-12 59 -12 109 4 51 16 57 21 75 64 11 26 25 49 31 53 5 3 12 46 14 94 3 72 0
96 -17 134 -15 35 -22 42 -29 31 -8 -12 -13 -13 -30 -2 -11 6 -29 12 -40 12
-11 0 -20 6 -20 14 0 21 -30 28 -47 11 -18 -19 -39 -14 -37 8 1 13 -2 14 -16
7 -13 -7 -20 -6 -24 3 -3 8 -9 6 -21 -8 -15 -18 -15 -18 -9 15 9 53 13 62 24
55 5 -3 10 -3 10 0 0 9 -27 35 -32 30 -2 -2 -10 5 -17 17 -11 18 -11 20 3 15
10 -4 16 -1 16 8 0 8 -4 15 -10 15 -5 0 -10 5 -10 11 0 5 4 7 10 4 6 -4 7 1 3
11 -4 11 -2 15 7 12 8 -2 18 -18 22 -35 4 -17 15 -33 23 -37 19 -7 19 13 0 40
-8 12 -11 24 -8 28 3 3 -1 6 -10 6 -9 0 -17 7 -17 15 0 23 -67 87 -76 73z m36
-317 c0 -6 -4 -13 -10 -16 -5 -3 -10 1 -10 9 0 9 5 16 10 16 6 0 10 -4 10 -9z
m150 -11 c0 -5 -2 -10 -4 -10 -3 0 -8 5 -11 10 -3 6 -1 10 4 10 6 0 11 -4 11
-10z"/>
<path d="M800 1320 c0 -5 5 -10 11 -10 5 0 7 5 4 10 -3 6 -8 10 -11 10 -2 0
-4 -4 -4 -10z"/>
<path d="M3980 1255 c-7 -9 -8 -15 -2 -15 5 0 12 7 16 15 3 8 4 15 2 15 -2 0
-9 -7 -16 -15z"/>
<path d="M1230 1244 c0 -8 -9 -14 -20 -14 -11 0 -20 5 -20 10 0 22 -22 8 -33
-20 -6 -16 -15 -30 -20 -30 -5 0 -4 -7 3 -15 7 -8 18 -15 25 -15 7 0 29 -13
50 -30 21 -16 43 -30 50 -30 16 0 48 -48 40 -60 -4 -6 -20 0 -38 14 -47 35
-140 58 -238 60 -63 1 -91 -3 -104 -14 -10 -8 -20 -14 -22 -12 -24 17 -54 -28
-34 -52 32 -39 247 -60 356 -36 51 11 108 -1 180 -40 30 -16 61 -30 67 -30 21
0 -36 51 -77 69 -47 21 -95 67 -95 90 0 10 -5 22 -11 28 -9 9 -9 23 0 57 15
62 15 61 -24 73 -29 9 -35 9 -35 -3z"/>
<path d="M4189 1171 c-24 -41 -10 -56 25 -26 24 21 27 27 16 40 -17 21 -23 19
-41 -14z"/>
<path d="M4135 1126 c-11 -7 -37 -16 -59 -19 -21 -3 -45 -14 -53 -24 -8 -10
-11 -12 -8 -5 6 10 -1 12 -32 6 -21 -4 -49 -11 -63 -16 -20 -6 -18 -7 11 -4
20 2 41 0 46 -5 15 -15 85 2 91 23 2 10 8 18 13 18 5 0 6 -7 3 -15 -9 -22 13
-18 38 7 13 13 29 22 35 20 7 -2 13 4 13 13 0 19 -10 19 -35 1z"/>
<path d="M1916 954 c-30 -30 -14 -104 40 -183 35 -52 32 -63 -13 -45 -34 15
-40 14 -64 0 -21 -12 -28 -13 -32 -4 -6 19 -13 8 -21 -32 l-6 -34 20 22 c19
20 27 21 90 16 47 -5 70 -3 70 4 0 6 8 13 18 16 17 6 18 12 9 72 -11 79 -3 93
42 70 28 -15 46 -6 21 9 -6 4 -7 11 -4 17 4 6 -1 8 -15 3 -16 -5 -21 -2 -21
10 0 12 6 16 20 12 11 -3 20 -1 20 4 0 16 -29 22 -44 10 -11 -10 -14 -7 -12
14 0 16 6 23 14 20 7 -3 10 0 7 5 -9 15 -31 12 -45 -5 -10 -12 -10 -15 1 -16
8 0 5 -4 -6 -8 -22 -9 -69 15 -59 30 9 15 -14 10 -30 -7z m94 -74 c0 -5 -8
-10 -17 -10 -15 0 -16 2 -3 10 19 12 20 12 20 0z"/>
<path d="M2979 918 c-12 -23 -12 -23 10 -4 23 21 26 26 11 26 -5 0 -15 -10
-21 -22z"/>
<path d="M2932 860 c-18 -17 -29 -30 -24 -30 5 0 21 14 37 30 37 38 30 38 -13
0z"/>
<path d="M3330 861 c-7 -14 -7 -22 2 -27 7 -4 8 -3 4 4 -4 7 -1 12 8 12 18 0
21 15 7 25 -6 3 -15 -3 -21 -14z"/>
<path d="M3377 847 c-3 -9 1 -18 9 -21 16 -6 18 2 5 22 -7 11 -9 11 -14 -1z"/>
<path d="M1340 833 c0 -26 16 -47 29 -39 6 4 11 0 11 -8 0 -9 7 -16 15 -16 8
0 15 5 15 10 0 6 -4 10 -9 10 -5 0 -11 9 -14 19 -2 10 -14 24 -26 30 -18 10
-21 9 -21 -6z"/>
<path d="M1273 819 c-5 -5 -25 -12 -43 -14 -43 -6 -44 -8 -15 -35 21 -19 25
-21 25 -7 0 9 5 17 10 17 6 0 10 -6 10 -14 0 -14 21 -26 46 -26 11 0 13 7 8
28 -15 67 -19 73 -41 51z"/>
<path d="M3100 790 c-8 -5 -12 -11 -9 -14 2 -3 11 -1 19 4 8 5 12 11 9 14 -2
3 -11 1 -19 -4z"/>
<path d="M3140 776 c0 -2 7 -7 16 -10 8 -3 12 -2 9 4 -6 10 -25 14 -25 6z"/>
<path d="M1170 754 c0 -8 5 -12 10 -9 6 4 8 11 5 16 -9 14 -15 11 -15 -7z"/>
<path d="M1355 760 c3 -5 10 -10 16 -10 5 0 9 5 9 10 0 6 -7 10 -16 10 -8 0
-12 -4 -9 -10z"/>
<path d="M1691 735 c-34 -39 -39 -55 -17 -55 8 0 16 -5 18 -11 2 -6 12 0 23
12 11 12 15 19 8 16 -6 -4 -14 -3 -17 2 -4 5 6 11 21 13 29 3 37 23 20 46 -14
18 -22 15 -56 -23z"/>
<path d="M3181 751 c-1 -23 -2 -23 -19 -8 -25 23 -32 21 -32 -8 0 -17 -6 -25
-17 -25 -13 -1 -10 -5 10 -16 40 -22 33 -28 -23 -21 -30 4 -48 2 -45 -3 3 -5
-12 -14 -33 -20 -22 -5 -51 -19 -66 -31 -14 -11 -26 -17 -27 -12 0 4 -4 -2 -9
-15 -8 -20 -14 -22 -45 -16 -43 8 -46 -3 -5 -17 37 -13 38 -28 5 -67 -14 -17
-25 -33 -25 -37 0 -3 14 -18 30 -32 35 -29 39 -62 10 -70 -26 -7 -25 -11 6
-57 20 -29 28 -35 35 -25 4 8 4 18 -1 23 -6 6 -10 14 -10 18 0 12 78 10 85 -2
3 -6 -1 -10 -9 -10 -9 0 -16 -4 -16 -9 0 -5 9 -7 20 -4 11 3 20 9 20 14 0 5 7
9 15 9 8 0 15 -7 15 -16 0 -27 70 -9 101 27 25 29 49 89 49 123 0 12 10 16 39
16 49 0 71 8 71 26 0 8 4 14 8 14 5 0 9 7 9 15 0 8 -5 11 -10 8 -6 -3 -8 9 -5
30 2 20 1 38 -2 39 -4 2 -10 16 -14 31 -4 19 -3 26 4 22 5 -3 10 -2 10 4 0 5
-6 12 -12 14 -8 3 -5 6 5 6 10 1 15 6 12 11 -3 6 -1 10 4 10 6 0 11 5 11 11 0
7 -16 9 -48 4 -52 -7 -85 10 -95 50 -4 17 -5 16 -6 -4z m9 -111 c0 -5 -4 -10
-9 -10 -6 0 -13 5 -16 10 -3 6 1 10 9 10 9 0 16 -4 16 -10z"/>
<path d="M1390 750 c0 -5 5 -10 10 -10 6 0 10 5 10 10 0 6 -4 10 -10 10 -5 0
-10 -4 -10 -10z"/>
<path d="M2784 745 c-10 -8 -14 -15 -8 -15 6 0 17 7 24 15 16 19 9 19 -16 0z"/>
<path d="M1253 713 c0 -10 6 -24 14 -31 11 -11 13 -11 13 2 0 9 7 16 15 16 8
0 15 5 15 10 0 6 -6 10 -14 10 -8 0 -21 2 -29 5 -8 4 -14 -1 -14 -12z"/>
<path d="M3230 725 c0 -7 30 -13 34 -7 3 4 -4 9 -15 9 -10 1 -19 0 -19 -2z"/>
<path d="M1712 651 c-11 -7 -11 -9 2 -14 10 -4 16 -1 16 8 0 17 -1 17 -18 6z"/>
<path d="M1783 613 c-19 -28 -20 -73 -2 -73 5 0 9 -5 9 -11 0 -15 30 -38 50
-39 8 0 28 10 43 23 l28 22 -40 44 c-23 24 -41 48 -41 53 0 18 -30 6 -47 -19z"/>
<path d="M2818 613 c6 -2 18 -2 25 0 6 3 1 5 -13 5 -14 0 -19 -2 -12 -5z"/>
<path d="M2315 560 c-4 -7 1 -21 14 -33 24 -24 27 -14 7 22 -9 17 -15 20 -21
11z"/>
<path d="M1930 522 c0 -17 8 -32 20 -40 25 -15 42 -8 33 14 -5 14 -1 15 25 10
18 -4 33 -3 37 3 7 12 -23 25 -77 34 -36 5 -38 4 -38 -21z"/>
<path d="M2180 506 c0 -2 7 -7 16 -10 8 -3 12 -2 9 4 -6 10 -25 14 -25 6z"/>
<path d="M2233 466 c4 -14 47 -21 47 -8 0 5 -11 12 -25 15 -16 3 -24 0 -22 -7z"/>
<path d="M2190 460 c0 -5 7 -7 15 -4 8 4 15 8 15 10 0 2 -7 4 -15 4 -8 0 -15
-4 -15 -10z"/>
<path d="M2243 414 c-3 -8 -1 -20 5 -26 6 -6 8 -16 5 -24 -3 -9 4 -12 24 -10
22 2 29 9 31 30 2 18 -1 26 -12 26 -9 0 -16 5 -16 10 0 16 -30 11 -37 -6z"/>
</g>
</svg>
